<svg xmlns="http://www.w3.org/2000/svg" xmlns:xlink="http://www.w3.org/1999/xlink" viewBox="0 0 375 374.999991" width="120" height="140" preserveAspectRatio="xMidYMid meet" version="1.0"><defs><filter x="0%" y="0%" width="100%" height="100%" id="01f499844e"><feColorMatrix values="0 0 0 0 1 0 0 0 0 1 0 0 0 0 1 0 0 0 1 0" color-interpolation-filters="sRGB"/></filter><g/><mask id="9d88e15b85"><g filter="url(#01f499844e)"><rect x="-37.5" width="450" fill="#000000" y="-37.499999" height="449.999989" fill-opacity="0.0784"/></g></mask><clipPath id="c42eecfed1"><path d="M 0.480469 0.480469 L 363 0.480469 L 363 363 L 0.480469 363 Z M 0.480469 0.480469 " clip-rule="nonzero"/></clipPath><clipPath id="99d49e454b"><rect x="0" width="366" y="0" height="366"/></clipPath><clipPath id="22753fcf90"><path d="M 10.464844 120.890625 L 364.578125 120.890625 L 364.578125 249.253906 L 10.464844 249.253906 Z M 10.464844 120.890625 " clip-rule="nonzero"/></clipPath></defs><g mask="url(#9d88e15b85)"><g transform="matrix(1, 0, 0, 1, 6, 6)"><g clip-path="url(#99d49e454b)"><g clip-path="url(#c42eecfed1)"><path fill="#000000" d="M 193.324219 0.988281 C 84.285156 -5.984375 -5.984375 84.28125 0.988281 193.324219 C 6.75 283.453125 79.550781 356.25 169.679688 362.015625 C 278.71875 368.984375 368.984375 278.722656 362.015625 169.679688 C 356.25 79.550781 283.449219 6.75 193.324219 0.988281 Z M 263.40625 271.257812 C 270.519531 246.816406 274.765625 218.699219 275.335938 188.457031 L 348.300781 188.457031 C 346.703125 227.234375 331.816406 262.617188 308.085938 290.210938 C 297.195312 282.582031 281.976562 276.132812 263.40625 271.257812 Z M 54.917969 290.210938 C 31.1875 262.617188 16.296875 227.234375 14.703125 188.457031 L 87.667969 188.457031 C 88.234375 218.699219 92.480469 246.816406 99.597656 271.257812 C 81.019531 276.136719 65.800781 282.582031 54.917969 290.210938 Z M 99.558594 91.867188 C 92.464844 116.28125 88.230469 144.351562 87.664062 174.542969 L 14.703125 174.542969 C 16.292969 135.949219 31.042969 100.71875 54.578125 73.179688 C 65.648438 80.683594 80.976562 87.042969 99.558594 91.867188 Z M 174.542969 174.542969 L 101.578125 174.542969 C 102.175781 145.75 106.457031 118.570312 113.453125 95.0625 C 132.257812 98.855469 153.113281 101.015625 174.542969 101.402344 Z M 174.542969 188.457031 L 174.542969 261.601562 C 153.070312 261.988281 132.21875 264.179688 113.480469 268.019531 C 106.46875 244.492188 102.179688 217.285156 101.578125 188.457031 Z M 188.457031 188.457031 L 261.421875 188.457031 C 260.824219 217.285156 256.53125 244.492188 249.523438 268.019531 C 230.773438 264.179688 209.925781 261.988281 188.457031 261.601562 Z M 188.457031 174.542969 L 188.457031 101.398438 C 209.886719 101.015625 230.742188 98.851562 249.546875 95.058594 C 256.542969 118.570312 260.824219 145.75 261.421875 174.542969 Z M 188.457031 87.488281 L 188.457031 15.226562 C 211.308594 19.566406 231.753906 44.941406 245.160156 81.765625 C 227.675781 85.175781 208.339844 87.117188 188.457031 87.488281 Z M 174.542969 15.226562 L 174.542969 87.488281 C 154.660156 87.117188 135.324219 85.175781 117.839844 81.765625 C 131.246094 44.941406 151.691406 19.5625 174.542969 15.226562 Z M 174.542969 275.515625 L 174.542969 347.777344 C 151.707031 343.441406 131.273438 318.097656 117.867188 281.3125 C 135.292969 277.855469 154.625 275.890625 174.542969 275.515625 Z M 188.457031 347.773438 L 188.457031 275.515625 C 208.371094 275.890625 227.699219 277.855469 245.132812 281.3125 C 231.726562 318.09375 211.292969 343.441406 188.457031 347.773438 Z M 275.335938 174.542969 C 274.769531 144.351562 270.535156 116.28125 263.445312 91.863281 C 282.027344 87.039062 297.351562 80.683594 308.421875 73.179688 C 331.957031 100.714844 346.707031 135.949219 348.296875 174.542969 Z M 298.804688 62.804688 C 289.0625 68.976562 275.433594 74.417969 259.191406 78.585938 C 250.460938 53.902344 238.609375 33.816406 224.644531 20.203125 C 253.042969 27.808594 278.476562 42.71875 298.804688 62.804688 Z M 103.8125 78.589844 C 87.570312 74.421875 73.941406 68.980469 64.199219 62.808594 C 84.523438 42.71875 109.960938 27.8125 138.359375 20.207031 C 124.394531 33.816406 112.539062 53.90625 103.8125 78.589844 Z M 64.550781 300.53125 C 74.082031 294.269531 87.605469 288.75 103.851562 284.53125 C 112.578125 309.160156 124.414062 329.203125 138.359375 342.796875 C 110.121094 335.234375 84.816406 320.445312 64.550781 300.53125 Z M 259.148438 284.53125 C 275.390625 288.75 288.917969 294.269531 298.449219 300.53125 C 278.183594 320.449219 252.882812 335.234375 224.640625 342.796875 C 238.585938 329.203125 250.417969 309.160156 259.148438 284.53125 Z M 259.148438 284.53125 " fill-opacity="1" fill-rule="nonzero"/></g></g></g></g><g clip-path="url(#22753fcf90)"><path fill="#000000" d="M 316.464844 276.164062 C 315.144531 275.722656 313.957031 275.054688 312.902344 274.152344 C 311.894531 273.28125 311.113281 272.242188 310.5625 271.03125 C 309.984375 269.738281 309.707031 268.386719 309.726562 266.972656 C 309.710938 265.589844 309.976562 264.261719 310.523438 262.988281 C 311.046875 261.78125 311.796875 260.734375 312.769531 259.84375 C 313.785156 258.929688 314.9375 258.242188 316.226562 257.789062 C 317.675781 257.277344 319.164062 257.03125 320.699219 257.046875 C 321.722656 257.039062 322.726562 257.167969 323.710938 257.433594 C 324.585938 257.671875 325.410156 258.027344 326.183594 258.5 C 326.921875 258.945312 327.585938 259.488281 328.175781 260.117188 C 328.765625 260.75 329.28125 261.4375 329.714844 262.183594 L 327.738281 263.558594 C 327.339844 262.996094 326.90625 262.460938 326.433594 261.953125 C 325.980469 261.460938 325.480469 261.019531 324.9375 260.625 C 324.417969 260.25 323.855469 259.949219 323.253906 259.726562 C 322.660156 259.507812 322.046875 259.398438 321.410156 259.398438 C 320.542969 259.394531 319.710938 259.558594 318.910156 259.890625 C 318.113281 260.222656 317.417969 260.707031 316.832031 261.339844 C 316.199219 262.035156 315.726562 262.824219 315.414062 263.710938 C 315.042969 264.765625 314.867188 265.855469 314.886719 266.972656 C 314.863281 268.09375 315.050781 269.179688 315.445312 270.226562 C 315.78125 271.113281 316.277344 271.902344 316.925781 272.589844 C 317.535156 273.222656 318.242188 273.703125 319.054688 274.035156 C 319.855469 274.367188 320.6875 274.53125 321.554688 274.53125 C 322.199219 274.535156 322.820312 274.421875 323.421875 274.183594 C 324 273.953125 324.539062 273.648438 325.03125 273.261719 C 325.546875 272.859375 326.011719 272.410156 326.433594 271.910156 C 326.875 271.390625 327.292969 270.851562 327.691406 270.289062 L 329.636719 271.714844 C 329.210938 272.421875 328.707031 273.070312 328.132812 273.660156 C 327.53125 274.289062 326.863281 274.839844 326.132812 275.3125 C 325.378906 275.800781 324.578125 276.183594 323.722656 276.457031 C 322.824219 276.746094 321.90625 276.886719 320.960938 276.878906 C 319.421875 276.890625 317.921875 276.652344 316.464844 276.164062 Z M 74.402344 276.539062 C 73.492188 276.324219 72.621094 276.003906 71.789062 275.574219 C 70.992188 275.164062 70.261719 274.660156 69.597656 274.054688 C 68.257812 272.839844 67.339844 271.359375 66.847656 269.617188 C 66.589844 268.710938 66.464844 267.785156 66.46875 266.839844 C 66.464844 265.917969 66.589844 265.015625 66.847656 264.128906 C 67.34375 262.425781 68.261719 260.988281 69.597656 259.816406 C 70.265625 259.230469 70.996094 258.738281 71.789062 258.339844 C 72.617188 257.921875 73.488281 257.609375 74.394531 257.40625 C 75.359375 257.1875 76.335938 257.082031 77.328125 257.082031 C 78.796875 257.070312 80.222656 257.3125 81.605469 257.804688 C 82.882812 258.253906 84.027344 258.921875 85.046875 259.8125 C 86.03125 260.679688 86.796875 261.707031 87.347656 262.894531 C 87.921875 264.140625 88.199219 265.445312 88.1875 266.8125 C 88.207031 268.246094 87.925781 269.613281 87.347656 270.921875 C 86.800781 272.140625 86.035156 273.203125 85.046875 274.101562 C 84.035156 275.015625 82.886719 275.699219 81.605469 276.15625 C 79.242188 276.976562 76.839844 277.105469 74.402344 276.542969 Z M 74.863281 259.308594 C 74.132812 259.726562 73.535156 260.289062 73.074219 260.992188 C 72.558594 261.785156 72.199219 262.644531 71.992188 263.566406 C 71.742188 264.644531 71.621094 265.738281 71.628906 266.84375 C 71.621094 267.980469 71.742188 269.105469 71.992188 270.214844 C 72.195312 271.164062 72.558594 272.050781 73.074219 272.875 C 73.53125 273.601562 74.125 274.1875 74.863281 274.628906 C 75.628906 275.070312 76.453125 275.28125 77.335938 275.261719 C 78.207031 275.28125 79.019531 275.070312 79.773438 274.628906 C 80.507812 274.183594 81.101562 273.601562 81.554688 272.875 C 82.070312 272.050781 82.433594 271.164062 82.644531 270.214844 C 82.902344 269.105469 83.023438 267.980469 83.011719 266.84375 C 83.023438 265.734375 82.902344 264.644531 82.644531 263.566406 C 82.433594 262.644531 82.070312 261.789062 81.554688 260.992188 C 81.097656 260.289062 80.503906 259.730469 79.773438 259.308594 C 79.015625 258.890625 78.203125 258.691406 77.335938 258.707031 C 76.457031 258.6875 75.636719 258.886719 74.867188 259.308594 Z M 26.632812 276.164062 C 25.3125 275.726562 24.125 275.058594 23.070312 274.15625 C 22.0625 273.285156 21.285156 272.246094 20.730469 271.035156 C 20.152344 269.746094 19.875 268.390625 19.894531 266.976562 C 19.878906 265.59375 20.144531 264.265625 20.695312 262.996094 C 21.21875 261.789062 21.964844 260.738281 22.9375 259.847656 C 23.953125 258.933594 25.105469 258.25 26.398438 257.792969 C 27.84375 257.28125 29.332031 257.035156 30.867188 257.054688 C 31.890625 257.042969 32.894531 257.171875 33.882812 257.4375 C 34.753906 257.679688 35.578125 258.035156 36.351562 258.503906 C 37.089844 258.953125 37.753906 259.492188 38.34375 260.121094 C 38.9375 260.753906 39.449219 261.441406 39.882812 262.1875 L 37.90625 263.5625 C 37.507812 263 37.074219 262.464844 36.601562 261.960938 C 36.148438 261.46875 35.648438 261.023438 35.105469 260.628906 C 34.585938 260.253906 34.023438 259.953125 33.425781 259.730469 C 32.828125 259.511719 32.214844 259.402344 31.578125 259.402344 C 30.710938 259.398438 29.878906 259.5625 29.074219 259.894531 C 28.277344 260.230469 27.585938 260.710938 26.996094 261.34375 C 26.363281 262.039062 25.890625 262.828125 25.578125 263.714844 C 25.207031 264.769531 25.03125 265.859375 25.050781 266.980469 C 25.03125 268.097656 25.21875 269.183594 25.609375 270.234375 C 25.949219 271.117188 26.441406 271.90625 27.09375 272.59375 C 27.699219 273.226562 28.410156 273.707031 29.21875 274.042969 C 30.019531 274.371094 30.855469 274.535156 31.722656 274.535156 C 32.367188 274.539062 32.988281 274.425781 33.589844 274.191406 C 34.171875 273.960938 34.707031 273.652344 35.199219 273.265625 C 35.714844 272.863281 36.179688 272.414062 36.601562 271.914062 C 37.042969 271.394531 37.460938 270.855469 37.859375 270.292969 L 39.804688 271.71875 C 39.378906 272.425781 38.875 273.074219 38.300781 273.667969 C 37.699219 274.292969 37.03125 274.84375 36.300781 275.320312 C 35.546875 275.804688 34.746094 276.1875 33.890625 276.460938 C 32.992188 276.75 32.074219 276.890625 31.128906 276.882812 C 29.589844 276.894531 28.089844 276.65625 26.632812 276.164062 Z M 300.625 276.75 L 288.875 263.4375 L 288.875 276.441406 L 285.925781 276.441406 L 285.925781 257.519531 L 288.894531 257.519531 L 299.714844 269.570312 L 299.714844 257.519531 L 302.652344 257.519531 L 302.652344 276.75 Z M 243.472656 276.070312 C 242.160156 275.65625 240.96875 275.011719 239.90625 274.136719 C 238.902344 273.304688 238.125 272.300781 237.566406 271.125 C 236.988281 269.882812 236.707031 268.578125 236.726562 267.207031 C 236.710938 265.765625 236.992188 264.382812 237.574219 263.0625 C 238.121094 261.832031 238.894531 260.761719 239.898438 259.859375 C 240.945312 258.933594 242.128906 258.242188 243.453125 257.785156 C 244.910156 257.277344 246.414062 257.03125 247.960938 257.046875 C 248.914062 257.042969 249.84375 257.171875 250.753906 257.4375 C 251.617188 257.6875 252.441406 258.03125 253.226562 258.472656 C 253.96875 258.882812 254.652344 259.378906 255.277344 259.949219 C 255.839844 260.460938 256.339844 261.03125 256.773438 261.65625 L 254.859375 263.410156 C 254.472656 262.859375 254.054688 262.335938 253.605469 261.835938 C 253.179688 261.363281 252.710938 260.941406 252.199219 260.570312 C 251.707031 260.210938 251.175781 259.925781 250.605469 259.714844 C 250.019531 259.5 249.410156 259.394531 248.785156 259.402344 C 247.832031 259.390625 246.914062 259.570312 246.035156 259.933594 C 245.195312 260.285156 244.464844 260.792969 243.851562 261.464844 C 243.207031 262.1875 242.726562 263.003906 242.410156 263.917969 C 242.039062 264.984375 241.867188 266.082031 241.882812 267.214844 C 241.863281 268.335938 242.050781 269.421875 242.441406 270.472656 C 242.78125 271.375 243.289062 272.167969 243.964844 272.851562 C 244.613281 273.5 245.367188 273.988281 246.222656 274.316406 C 247.121094 274.65625 248.046875 274.820312 249.007812 274.8125 C 249.574219 274.8125 250.128906 274.738281 250.671875 274.578125 C 251.191406 274.421875 251.671875 274.1875 252.113281 273.875 L 252.113281 268.832031 L 248.890625 268.832031 L 248.890625 267.207031 L 256.78125 267.207031 L 256.78125 274.511719 C 256.175781 274.839844 255.566406 275.136719 254.960938 275.40625 C 254.328125 275.683594 253.679688 275.921875 253.015625 276.109375 C 252.273438 276.320312 251.519531 276.476562 250.753906 276.578125 C 249.839844 276.699219 248.917969 276.757812 247.996094 276.75 C 246.449219 276.765625 244.945312 276.539062 243.472656 276.070312 Z M 184.675781 276.070312 C 183.363281 275.65625 182.171875 275.011719 181.109375 274.136719 C 180.105469 273.304688 179.328125 272.300781 178.769531 271.125 C 178.191406 269.882812 177.910156 268.578125 177.929688 267.207031 C 177.910156 265.769531 178.191406 264.386719 178.769531 263.070312 C 179.316406 261.835938 180.09375 260.765625 181.097656 259.863281 C 182.144531 258.9375 183.328125 258.246094 184.652344 257.789062 C 186.113281 257.28125 187.617188 257.035156 189.160156 257.050781 C 190.109375 257.046875 191.042969 257.179688 191.953125 257.441406 C 192.816406 257.695312 193.640625 258.039062 194.425781 258.476562 C 195.167969 258.890625 195.851562 259.382812 196.476562 259.957031 C 197.039062 260.46875 197.539062 261.035156 197.972656 261.660156 L 196.058594 263.414062 C 195.675781 262.859375 195.261719 262.332031 194.8125 261.832031 C 194.386719 261.359375 193.921875 260.9375 193.40625 260.5625 C 192.917969 260.207031 192.386719 259.921875 191.816406 259.707031 C 191.226562 259.496094 190.621094 259.390625 189.996094 259.394531 C 189.042969 259.386719 188.125 259.5625 187.242188 259.929688 C 186.402344 260.277344 185.675781 260.789062 185.0625 261.460938 C 184.417969 262.183594 183.9375 263 183.621094 263.910156 C 183.25 264.980469 183.078125 266.078125 183.09375 267.207031 C 183.074219 268.332031 183.257812 269.417969 183.652344 270.46875 C 183.992188 271.371094 184.5 272.164062 185.175781 272.847656 C 185.824219 273.496094 186.578125 273.984375 187.433594 274.3125 C 188.332031 274.652344 189.257812 274.816406 190.21875 274.804688 C 190.785156 274.808594 191.335938 274.730469 191.878906 274.574219 C 192.402344 274.417969 192.882812 274.183594 193.324219 273.867188 L 193.324219 268.832031 L 190.089844 268.832031 L 190.089844 267.207031 L 197.984375 267.207031 L 197.984375 274.511719 C 197.375 274.839844 196.769531 275.136719 196.164062 275.40625 C 195.53125 275.6875 194.882812 275.921875 194.21875 276.109375 C 193.476562 276.320312 192.726562 276.476562 191.960938 276.578125 C 191.042969 276.699219 190.125 276.757812 189.199219 276.75 C 187.65625 276.765625 186.148438 276.539062 184.675781 276.070312 Z M 168.832031 276.75 L 157.078125 263.4375 L 157.078125 276.441406 L 154.132812 276.441406 L 154.132812 257.519531 L 157.101562 257.519531 L 167.921875 269.570312 L 167.921875 257.519531 L 170.859375 257.519531 L 170.859375 276.75 Z M 342.464844 276.453125 L 342.464844 268.535156 L 334.402344 257.515625 L 339.28125 257.515625 L 345.542969 266.023438 L 351.394531 257.511719 L 354.535156 257.511719 L 347.144531 268.242188 L 347.144531 276.441406 Z M 264.667969 276.453125 L 264.667969 257.519531 L 278.835938 257.519531 L 278.835938 259.121094 L 269.3125 259.121094 L 269.3125 265.382812 L 277.222656 265.382812 L 277.222656 267.007812 L 269.3125 267.007812 L 269.3125 274.519531 L 278.835938 274.519531 L 278.835938 276.460938 Z M 228.308594 276.453125 L 225.9375 271.277344 L 218.5625 271.277344 L 216.066406 276.453125 L 212.898438 276.453125 L 222.171875 257.09375 L 224.179688 257.09375 L 233.078125 276.453125 Z M 219.425781 269.503906 L 225.152344 269.503906 L 222.34375 263.386719 Z M 141.382812 276.453125 L 141.382812 257.519531 L 146.042969 257.519531 L 146.042969 276.453125 Z M 128.691406 276.453125 L 128.691406 267.441406 L 121.050781 267.441406 L 121.050781 276.453125 L 116.402344 276.453125 L 116.402344 257.519531 L 121.046875 257.519531 L 121.046875 265.8125 L 128.6875 265.8125 L 128.6875 257.519531 L 133.320312 257.519531 L 133.320312 276.453125 Z M 98.632812 276.453125 L 98.632812 259.121094 L 92.058594 259.121094 L 92.058594 257.523438 L 109.855469 257.523438 L 109.855469 259.121094 L 103.277344 259.121094 L 103.277344 276.460938 Z M 46.910156 276.453125 L 46.910156 257.519531 L 51.550781 257.519531 L 51.550781 274.511719 L 61.25 274.511719 L 61.25 276.453125 Z M 49.34375 240.421875 C 46.75 239.246094 44.136719 237.902344 41.503906 236.382812 C 38.84375 234.847656 36.300781 233.140625 33.871094 231.261719 C 31.449219 229.402344 29.289062 227.277344 27.386719 224.894531 C 25.507812 222.539062 24.003906 219.96875 22.871094 217.183594 C 21.691406 214.242188 21.121094 211.1875 21.15625 208.019531 C 21.113281 206.113281 21.328125 204.238281 21.804688 202.390625 C 22.28125 200.546875 23 198.796875 23.960938 197.148438 C 25.816406 194.03125 28.304688 191.546875 31.425781 189.6875 C 29.613281 188.503906 28.019531 187.070312 26.652344 185.390625 C 25.980469 184.605469 25.464844 183.726562 25.109375 182.753906 C 24.753906 181.785156 24.574219 180.78125 24.574219 179.75 C 24.535156 178.726562 24.738281 177.753906 25.191406 176.832031 C 25.644531 175.914062 26.289062 175.15625 27.125 174.5625 C 28.964844 173.25 30.988281 172.351562 33.199219 171.871094 L 51.574219 167.316406 C 52.742188 167.03125 53.832031 166.566406 54.84375 165.917969 C 55.277344 165.621094 55.609375 165.238281 55.84375 164.765625 C 56.074219 164.296875 56.171875 163.800781 56.140625 163.277344 C 56.148438 162.445312 55.886719 161.703125 55.363281 161.058594 C 55.140625 160.75 54.863281 160.507812 54.523438 160.332031 C 54.183594 160.160156 53.824219 160.070312 53.441406 160.070312 L 14.511719 160.070312 C 14.105469 160.023438 13.742188 159.867188 13.421875 159.605469 C 12.316406 158.816406 11.488281 157.804688 10.929688 156.566406 C 10.609375 155.839844 10.453125 155.082031 10.464844 154.289062 L 49.597656 154.289062 C 50.925781 154.433594 52.136719 154.878906 53.234375 155.632812 C 54.84375 156.597656 56.332031 157.71875 57.695312 159 C 59.113281 160.300781 60.375 161.730469 61.488281 163.296875 C 62.460938 164.507812 62.996094 165.886719 63.097656 167.433594 C 63.132812 168.230469 62.96875 168.984375 62.609375 169.691406 C 62.25 170.402344 61.738281 170.980469 61.074219 171.421875 C 59.628906 172.398438 58.054688 173.070312 56.351562 173.441406 L 37.972656 177.996094 C 36.335938 178.40625 34.8125 179.078125 33.402344 180.015625 C 32.777344 180.457031 32.296875 181.023438 31.960938 181.714844 C 31.628906 182.40625 31.488281 183.132812 31.535156 183.898438 C 31.523438 184.773438 31.703125 185.609375 32.066406 186.40625 C 32.429688 187.207031 32.945312 187.886719 33.613281 188.457031 C 37.871094 186.382812 42.371094 185.378906 47.109375 185.453125 C 50.882812 185.449219 54.464844 186.277344 57.851562 187.9375 C 61.226562 189.550781 64.277344 191.640625 67 194.203125 C 69.570312 196.597656 71.695312 199.335938 73.375 202.417969 C 74.886719 205.046875 75.683594 207.878906 75.761719 210.90625 C 75.769531 212.839844 75.371094 214.6875 74.570312 216.445312 C 73.769531 218.21875 72.714844 219.824219 71.402344 221.261719 C 70.058594 222.734375 68.535156 223.996094 66.835938 225.039062 C 65.125 226.105469 63.289062 226.878906 61.332031 227.371094 C 60.613281 227.136719 59.9375 226.820312 59.296875 226.421875 C 58.65625 226.019531 58.074219 225.550781 57.546875 225.007812 C 57.023438 224.46875 56.570312 223.871094 56.195312 223.21875 C 55.816406 222.570312 55.519531 221.882812 55.3125 221.15625 C 58.992188 220.039062 62.15625 218.089844 64.8125 215.308594 C 66.121094 213.917969 67.113281 212.328125 67.785156 210.542969 C 68.460938 208.757812 68.765625 206.914062 68.703125 205.003906 C 68.730469 203.109375 68.351562 201.296875 67.5625 199.570312 C 66.796875 197.9375 65.726562 196.542969 64.347656 195.378906 C 62.894531 194.160156 61.265625 193.246094 59.46875 192.636719 C 57.449219 191.953125 55.375 191.625 53.242188 191.652344 C 50.066406 191.636719 46.96875 192.121094 43.949219 193.101562 C 41.09375 194.015625 38.496094 195.414062 36.164062 197.292969 C 34.972656 198.257812 33.910156 199.339844 32.96875 200.546875 C 32.03125 201.753906 31.238281 203.050781 30.597656 204.4375 C 29.953125 205.820312 29.476562 207.261719 29.164062 208.757812 C 28.851562 210.253906 28.714844 211.765625 28.746094 213.289062 C 28.707031 216.257812 29.3125 219.085938 30.5625 221.777344 C 31.898438 224.511719 33.699219 226.894531 35.960938 228.929688 C 38.707031 231.394531 41.703125 233.519531 44.941406 235.296875 C 49.007812 237.558594 53.195312 239.578125 57.5 241.351562 C 57.488281 241.757812 57.382812 242.136719 57.191406 242.492188 C 57.03125 242.835938 56.824219 243.148438 56.566406 243.425781 C 54.34375 242.597656 51.9375 241.59375 49.34375 240.421875 Z M 142.410156 225.566406 C 139.34375 223.453125 136.558594 221.019531 134.054688 218.265625 C 131.398438 215.351562 129.199219 212.121094 127.460938 208.582031 C 125.597656 204.738281 124.699219 200.683594 124.761719 196.417969 C 124.699219 192.980469 125.304688 189.667969 126.578125 186.476562 C 127.699219 183.695312 129.34375 181.261719 131.507812 179.175781 C 133.574219 177.210938 135.941406 175.726562 138.617188 174.726562 C 140.535156 174.039062 142.503906 173.585938 144.527344 173.367188 C 146.550781 173.152344 148.574219 173.175781 150.589844 173.441406 C 152.609375 173.707031 154.566406 174.207031 156.464844 174.941406 C 158.363281 175.671875 160.148438 176.621094 161.820312 177.78125 C 165.8125 180.84375 168.824219 184.675781 170.851562 189.273438 L 189.226562 175.8125 L 189.226562 160.078125 L 118.117188 160.078125 C 117.484375 160.082031 116.933594 159.875 116.457031 159.457031 C 116.183594 159.21875 115.9375 158.960938 115.71875 158.675781 C 115.855469 159.132812 115.925781 159.597656 115.9375 160.078125 L 100.261719 160.078125 L 100.261719 227.683594 C 98.871094 227.6875 97.519531 227.445312 96.214844 226.964844 C 94.84375 226.449219 93.703125 225.621094 92.789062 224.476562 L 92.789062 160.078125 L 67.25 160.078125 C 66.617188 160.082031 66.0625 159.875 65.589844 159.457031 C 65.082031 159.011719 64.671875 158.496094 64.351562 157.902344 C 64.011719 157.292969 63.734375 156.652344 63.523438 155.988281 C 63.332031 155.433594 63.226562 154.863281 63.210938 154.277344 L 111.90625 154.277344 C 112.539062 154.273438 113.09375 154.480469 113.566406 154.898438 C 113.839844 155.132812 114.089844 155.394531 114.308594 155.679688 C 114.171875 155.222656 114.097656 154.753906 114.089844 154.277344 L 241.136719 154.277344 C 241.769531 154.273438 242.324219 154.480469 242.800781 154.898438 C 243.050781 155.117188 243.28125 155.355469 243.484375 155.613281 C 243.382812 155.175781 243.324219 154.730469 243.316406 154.277344 L 341.734375 154.277344 C 341.851562 150.941406 341.539062 147.644531 340.789062 144.386719 C 340.042969 141.128906 338.886719 138.027344 337.324219 135.070312 C 336.671875 133.964844 335.886719 132.96875 334.964844 132.078125 C 334.039062 131.191406 333.011719 130.441406 331.878906 129.835938 C 330.75 129.226562 329.558594 128.785156 328.304688 128.503906 C 327.050781 128.222656 325.785156 128.117188 324.5 128.1875 C 322.484375 128.160156 320.53125 128.488281 318.636719 129.171875 C 316.941406 129.78125 315.4375 130.695312 314.121094 131.917969 C 312.875 133.078125 311.925781 134.441406 311.265625 136.007812 C 310.589844 137.613281 310.261719 139.285156 310.277344 141.027344 C 310.261719 142.761719 310.574219 144.4375 311.210938 146.050781 C 311.746094 147.453125 312.472656 148.746094 313.390625 149.933594 C 313.277344 150.21875 313.101562 150.449219 312.859375 150.636719 C 312.617188 150.820312 312.347656 150.933594 312.042969 150.96875 C 309.625 149.109375 307.566406 146.917969 305.863281 144.394531 C 305.015625 143.203125 304.367188 141.914062 303.914062 140.527344 C 303.460938 139.140625 303.230469 137.714844 303.214844 136.257812 C 303.183594 134.171875 303.613281 132.1875 304.515625 130.300781 C 305.359375 128.558594 306.519531 127.058594 307.996094 125.796875 C 309.503906 124.519531 311.199219 123.570312 313.078125 122.949219 C 315.066406 122.28125 317.109375 121.953125 319.207031 121.964844 C 322.8125 122.007812 326.167969 122.941406 329.277344 124.765625 C 332.703125 126.703125 335.730469 129.136719 338.363281 132.0625 C 341.175781 135.175781 343.476562 138.628906 345.265625 142.417969 C 347.097656 146.171875 348.242188 150.125 348.691406 154.277344 L 360.527344 154.277344 C 361.160156 154.269531 361.714844 154.476562 362.1875 154.898438 C 362.691406 155.339844 363.105469 155.859375 363.425781 156.449219 C 363.765625 157.0625 364.042969 157.699219 364.253906 158.367188 C 364.445312 158.917969 364.546875 159.488281 364.566406 160.074219 L 348.890625 160.074219 L 348.890625 227.683594 C 347.496094 227.6875 346.148438 227.445312 344.839844 226.964844 C 343.472656 226.449219 342.328125 225.617188 341.414062 224.476562 L 341.414062 160.078125 L 316.09375 160.078125 L 316.09375 227.683594 C 314.703125 227.6875 313.351562 227.445312 312.046875 226.964844 C 310.675781 226.449219 309.535156 225.621094 308.621094 224.476562 L 308.621094 208.425781 C 308.625 204.984375 308.019531 201.65625 306.804688 198.433594 C 305.601562 195.226562 303.835938 192.363281 301.507812 189.839844 C 299.082031 187.234375 296.261719 185.164062 293.046875 183.628906 C 289.5 181.9375 285.761719 180.949219 281.835938 180.671875 C 283.414062 181.46875 284.832031 182.484375 286.09375 183.722656 C 287.429688 185.03125 288.589844 186.480469 289.570312 188.070312 C 290.5625 189.671875 291.359375 191.363281 291.960938 193.144531 C 292.539062 194.839844 292.832031 196.582031 292.839844 198.375 C 292.890625 200.789062 292.421875 203.101562 291.4375 205.308594 C 290.546875 207.257812 289.300781 208.949219 287.703125 210.382812 C 286.128906 211.777344 284.347656 212.8125 282.355469 213.488281 C 280.335938 214.183594 278.261719 214.527344 276.125 214.523438 C 273.359375 214.449219 270.726562 213.808594 268.234375 212.605469 C 265.355469 211.304688 262.726562 209.613281 260.347656 207.535156 C 257.953125 205.464844 255.929688 203.082031 254.277344 200.386719 C 252.695312 197.941406 251.882812 195.269531 251.835938 192.359375 C 251.800781 189.785156 252.339844 187.335938 253.445312 185.011719 C 254.527344 182.773438 256.050781 180.890625 258.015625 179.363281 C 260.128906 177.730469 262.464844 176.523438 265.023438 175.742188 C 267.929688 174.84375 270.90625 174.414062 273.949219 174.445312 C 277.371094 174.449219 280.730469 174.914062 284.019531 175.84375 C 287.332031 176.773438 290.480469 178.089844 293.464844 179.789062 C 296.464844 181.496094 299.234375 183.511719 301.773438 185.84375 C 304.3125 188.171875 306.597656 190.726562 308.625 193.507812 L 308.625 160.078125 L 247.265625 160.078125 C 246.632812 160.082031 246.078125 159.875 245.605469 159.457031 C 245.394531 159.273438 245.199219 159.078125 245.019531 158.867188 C 245.125 159.261719 245.179688 159.667969 245.1875 160.078125 L 229.511719 160.078125 L 229.511719 227.683594 C 228.121094 227.6875 226.769531 227.445312 225.464844 226.964844 C 224.09375 226.449219 222.953125 225.621094 222.039062 224.476562 L 222.039062 160.078125 L 196.707031 160.078125 L 196.707031 227.683594 C 195.316406 227.6875 193.964844 227.445312 192.660156 226.964844 C 191.289062 226.449219 190.148438 225.621094 189.234375 224.476562 L 189.234375 185.65625 L 160.066406 206.878906 C 158.644531 206.308594 157.449219 205.425781 156.484375 204.238281 C 155.664062 203.316406 154.988281 202.300781 154.460938 201.1875 L 168.574219 190.9375 C 167.910156 189.253906 167.007812 187.707031 165.878906 186.296875 C 164.746094 184.882812 163.433594 183.667969 161.9375 182.644531 C 160.492188 181.679688 158.941406 180.949219 157.273438 180.453125 C 155.609375 179.960938 153.910156 179.722656 152.171875 179.738281 C 149.574219 179.730469 147.0625 180.195312 144.644531 181.136719 C 142.25 182.066406 140.15625 183.445312 138.359375 185.277344 C 136.453125 187.269531 135 189.550781 134.003906 192.121094 C 132.828125 195.203125 132.277344 198.398438 132.347656 201.695312 C 132.304688 204.558594 132.714844 207.351562 133.582031 210.078125 C 134.425781 212.59375 135.652344 214.90625 137.265625 217.015625 C 139.03125 219.292969 141.054688 221.3125 143.339844 223.074219 C 145.992188 225.125 148.761719 227.007812 151.648438 228.714844 C 151.527344 229.472656 151.144531 230.058594 150.503906 230.476562 C 147.703125 229.007812 145.003906 227.371094 142.410156 225.566406 Z M 271.089844 181.871094 C 268.832031 182.625 266.789062 183.761719 264.964844 185.285156 C 263.195312 186.765625 261.8125 188.546875 260.8125 190.621094 C 259.773438 192.816406 259.273438 195.128906 259.308594 197.554688 C 259.214844 199.074219 259.433594 200.546875 259.96875 201.96875 C 260.5 203.394531 261.300781 204.648438 262.371094 205.734375 C 263.433594 206.71875 264.640625 207.460938 266 207.960938 C 267.359375 208.464844 268.761719 208.6875 270.207031 208.632812 C 272.367188 208.664062 274.441406 208.265625 276.4375 207.445312 C 278.300781 206.664062 279.9375 205.550781 281.34375 204.105469 C 282.75 202.65625 283.8125 200.992188 284.535156 199.109375 C 285.316406 197.078125 285.699219 194.972656 285.675781 192.796875 C 285.667969 191.675781 285.53125 190.570312 285.265625 189.480469 C 284.972656 188.269531 284.539062 187.113281 283.964844 186.011719 C 283.378906 184.875 282.652344 183.839844 281.785156 182.90625 C 280.871094 181.933594 279.816406 181.160156 278.617188 180.574219 C 276.042969 180.621094 273.53125 181.050781 271.089844 181.871094 Z M 212.382812 160.078125 Z M 85.210938 160.078125 Z M 91.335938 141.492188 C 89.914062 138.765625 88.132812 136.300781 85.988281 134.09375 C 84.007812 132.058594 81.722656 130.449219 79.132812 129.273438 C 76.539062 128.113281 73.820312 127.542969 70.976562 127.566406 C 68.128906 127.503906 65.34375 127.882812 62.617188 128.703125 C 60.253906 129.480469 57.953125 130.414062 55.714844 131.5 C 54.671875 130.515625 53.757812 129.429688 52.964844 128.238281 C 52.167969 127.117188 51.597656 125.890625 51.25 124.5625 C 53.128906 123.480469 55.109375 122.636719 57.191406 122.027344 C 59.277344 121.417969 61.402344 121.066406 63.570312 120.964844 C 65.738281 120.867188 67.886719 121.023438 70.015625 121.441406 C 72.144531 121.855469 74.195312 122.515625 76.167969 123.421875 C 79.714844 125.085938 82.882812 127.292969 85.664062 130.046875 C 88.507812 132.855469 90.914062 135.996094 92.878906 139.46875 C 94.851562 142.894531 96.339844 146.519531 97.34375 150.339844 C 96.648438 150.78125 95.886719 150.988281 95.058594 150.960938 C 94.160156 147.667969 92.917969 144.511719 91.332031 141.488281 Z M 91.335938 141.492188 " fill-opacity="1" fill-rule="nonzero"/></g><g fill="#000000" fill-opacity="1"><g transform="translate(91.919863, 122.313086)"><g><path d="M 26.40625 -19.078125 L 9.109375 -19.078125 L 9.109375 -3.078125 L 26.40625 -3.078125 L 26.40625 -9.546875 L 17.46875 -9.546875 L 17.46875 -12.359375 L 30.078125 -12.359375 L 30.078125 -5.21875 C 30.078125 -3.195312 29.710938 -1.820312 28.984375 -1.09375 C 28.265625 -0.363281 26.90625 0 24.90625 0 L 10.609375 0 C 8.585938 0 7.21875 -0.367188 6.5 -1.109375 C 5.789062 -1.847656 5.4375 -3.21875 5.4375 -5.21875 L 5.4375 -16.859375 C 5.4375 -18.859375 5.789062 -20.226562 6.5 -20.96875 C 7.21875 -21.707031 8.585938 -22.078125 10.609375 -22.078125 L 24.90625 -22.078125 C 26.875 -22.078125 28.226562 -21.71875 28.96875 -21 C 29.707031 -20.28125 30.078125 -18.984375 30.078125 -17.109375 L 30.078125 -16.5625 L 26.40625 -15.828125 Z M 26.40625 -19.078125 "/></g></g></g><g fill="#000000" fill-opacity="1"><g transform="translate(126.864234, 122.313086)"><g><path d="M 5.71875 0 L 5.71875 -22.078125 L 9.421875 -22.078125 L 9.421875 -3.078125 L 26.125 -3.078125 L 26.125 0 Z M 5.71875 0 "/></g></g></g><g fill="#000000" fill-opacity="1"><g transform="translate(154.790488, 122.313086)"><g><path d="M 9.109375 -3.078125 L 27.390625 -3.078125 L 27.390625 -19.078125 L 9.109375 -19.078125 Z M 5.4375 -16.859375 C 5.4375 -18.859375 5.789062 -20.226562 6.5 -20.96875 C 7.21875 -21.707031 8.585938 -22.078125 10.609375 -22.078125 L 25.875 -22.078125 C 27.875 -22.078125 29.226562 -21.710938 29.9375 -20.984375 C 30.65625 -20.253906 31.015625 -18.878906 31.015625 -16.859375 L 31.015625 -5.21875 C 31.015625 -3.1875 30.65625 -1.804688 29.9375 -1.078125 C 29.226562 -0.359375 27.875 0 25.875 0 L 10.609375 0 C 8.585938 0 7.21875 -0.367188 6.5 -1.109375 C 5.789062 -1.847656 5.4375 -3.21875 5.4375 -5.21875 Z M 5.4375 -16.859375 "/></g></g></g><g fill="#000000" fill-opacity="1"><g transform="translate(191.280516, 122.313086)"><g><path d="M 24.609375 -5.640625 L 24.609375 -7.484375 C 24.609375 -8.484375 24.429688 -9.171875 24.078125 -9.546875 C 23.722656 -9.929688 23.082031 -10.125 22.15625 -10.125 L 9.421875 -10.125 L 9.421875 -3.03125 L 22.15625 -3.03125 C 23.09375 -3.03125 23.734375 -3.21875 24.078125 -3.59375 C 24.429688 -3.96875 24.609375 -4.648438 24.609375 -5.640625 Z M 24.421875 -14.984375 L 24.421875 -17.1875 C 24.421875 -17.914062 24.265625 -18.414062 23.953125 -18.6875 C 23.640625 -18.96875 23.039062 -19.109375 22.15625 -19.109375 L 9.421875 -19.109375 L 9.421875 -13.015625 L 22.15625 -13.015625 C 23.007812 -13.015625 23.597656 -13.160156 23.921875 -13.453125 C 24.253906 -13.742188 24.421875 -14.253906 24.421875 -14.984375 Z M 5.71875 0 L 5.71875 -22.078125 L 23.515625 -22.078125 C 25.171875 -22.078125 26.363281 -21.738281 27.09375 -21.0625 C 27.832031 -20.382812 28.203125 -19.296875 28.203125 -17.796875 L 28.203125 -15.234375 C 28.203125 -14.046875 27.90625 -13.160156 27.3125 -12.578125 C 26.71875 -11.992188 25.789062 -11.625 24.53125 -11.46875 C 25.769531 -11.3125 26.710938 -10.867188 27.359375 -10.140625 C 28.003906 -9.410156 28.328125 -8.410156 28.328125 -7.140625 L 28.328125 -4.328125 C 28.328125 -2.859375 27.820312 -1.769531 26.8125 -1.0625 C 25.800781 -0.351562 24.265625 0 22.203125 0 Z M 5.71875 0 "/></g></g></g><g fill="#000000" fill-opacity="1"><g transform="translate(224.052613, 122.313086)"><g><path d="M 9.421875 -8.25 L 21.3125 -8.25 L 15.359375 -19.546875 Z M 1.421875 0 L 13.46875 -22.078125 L 17.421875 -22.078125 L 29.6875 0 L 25.625 0 L 22.8125 -5.4375 L 7.875 -5.4375 L 5.0625 0 Z M 1.421875 0 "/></g></g></g><g fill="#000000" fill-opacity="1"><g transform="translate(255.153731, 122.313086)"><g><path d="M 5.71875 0 L 5.71875 -22.078125 L 9.421875 -22.078125 L 9.421875 -3.078125 L 26.125 -3.078125 L 26.125 0 Z M 5.71875 0 "/></g></g></g><g fill="#000000" fill-opacity="1"><g transform="translate(69.390134, 276.589501)"><g><path d="M 12.8125 -17.09375 L 12.8125 0 L 9.515625 0 L 9.515625 -17.09375 L 0.46875 -17.09375 L 0.46875 -19.796875 L 21.890625 -19.796875 L 21.890625 -17.09375 Z M 12.8125 -17.09375 "/></g></g></g><g fill="#000000" fill-opacity="1"><g transform="translate(91.71143, 276.589501)"><g><path d="M 19.796875 -17.234375 L 8.453125 -17.234375 L 8.453125 -10.28125 L 19.796875 -10.28125 C 20.617188 -10.28125 21.179688 -10.429688 21.484375 -10.734375 C 21.785156 -11.035156 21.9375 -11.5625 21.9375 -12.3125 L 21.9375 -15.1875 C 21.9375 -15.9375 21.78125 -16.460938 21.46875 -16.765625 C 21.164062 -17.078125 20.609375 -17.234375 19.796875 -17.234375 Z M 5.125 0 L 5.125 -19.796875 L 21.09375 -19.796875 C 22.570312 -19.796875 23.640625 -19.492188 24.296875 -18.890625 C 24.953125 -18.285156 25.28125 -17.304688 25.28125 -15.953125 L 25.28125 -11.53125 C 25.28125 -10.195312 24.953125 -9.226562 24.296875 -8.625 C 23.640625 -8.019531 22.570312 -7.71875 21.09375 -7.71875 L 18.1875 -7.71875 L 27.234375 0 L 22.328125 0 L 14.265625 -7.71875 L 8.453125 -7.71875 L 8.453125 0 Z M 5.125 0 "/></g></g></g><g fill="#000000" fill-opacity="1"><g transform="translate(120.942589, 276.589501)"><g><path d="M 8.453125 -7.390625 L 19.109375 -7.390625 L 13.765625 -17.53125 Z M 1.28125 0 L 12.078125 -19.796875 L 15.625 -19.796875 L 26.609375 0 L 22.984375 0 L 20.453125 -4.875 L 7.0625 -4.875 L 4.53125 0 Z M 1.28125 0 "/></g></g></g><g fill="#000000" fill-opacity="1"><g transform="translate(148.825482, 276.589501)"><g><path d="M 15.5625 -17.09375 L 8.453125 -17.09375 L 8.453125 -2.75 L 15.5625 -2.75 C 18.769531 -2.75 21.035156 -3.3125 22.359375 -4.4375 C 23.679688 -5.5625 24.34375 -7.421875 24.34375 -10.015625 C 24.34375 -12.523438 23.664062 -14.332031 22.3125 -15.4375 C 20.96875 -16.539062 18.71875 -17.09375 15.5625 -17.09375 Z M 16.03125 -19.796875 C 17.851562 -19.796875 19.363281 -19.671875 20.5625 -19.421875 C 21.769531 -19.179688 22.796875 -18.796875 23.640625 -18.265625 C 24.910156 -17.421875 25.910156 -16.269531 26.640625 -14.8125 C 27.367188 -13.351562 27.734375 -11.753906 27.734375 -10.015625 C 27.734375 -8.171875 27.375 -6.507812 26.65625 -5.03125 C 25.9375 -3.550781 24.929688 -2.382812 23.640625 -1.53125 C 22.828125 -1.007812 21.8125 -0.625 20.59375 -0.375 C 19.382812 -0.125 17.863281 0 16.03125 0 L 5.125 0 L 5.125 -19.796875 Z M 16.03125 -19.796875 "/></g></g></g><g fill="#000000" fill-opacity="1"><g transform="translate(179.816878, 276.589501)"><g><path d="M 5.125 0 L 5.125 -19.796875 L 24.203125 -19.796875 L 24.203125 -17.140625 L 8.453125 -17.140625 L 8.453125 -11.625 L 18.078125 -11.625 L 18.078125 -9.015625 L 8.453125 -9.015625 L 8.453125 -2.71875 L 24.34375 -2.71875 L 24.34375 0 Z M 5.125 0 "/></g></g></g><g fill="#000000" fill-opacity="1"><g transform="translate(206.894556, 276.589501)"><g><path d="M 5.125 0 L 5.125 -19.796875 L 8.453125 -19.796875 L 8.453125 -2.75 L 23.4375 -2.75 L 23.4375 0 Z M 5.125 0 "/></g></g></g><g fill="#000000" fill-opacity="1"><g transform="translate(231.93111, 276.589501)"><g><path d="M 5.125 0 L 5.125 -19.796875 L 8.453125 -19.796875 L 8.453125 0 Z M 5.125 0 "/></g></g></g><g fill="#000000" fill-opacity="1"><g transform="translate(245.507401, 276.589501)"><g><path d="M 5.125 0 L 5.125 -19.796875 L 7.21875 -19.796875 L 22.03125 -6.5625 C 22.363281 -6.257812 22.71875 -5.894531 23.09375 -5.46875 C 23.476562 -5.039062 23.875 -4.570312 24.28125 -4.0625 C 24.175781 -4.695312 24.097656 -5.359375 24.046875 -6.046875 C 23.992188 -6.742188 23.96875 -7.707031 23.96875 -8.9375 L 23.96875 -19.796875 L 27.015625 -19.796875 L 27.015625 0 L 25.15625 0 L 9.953125 -13.765625 C 9.867188 -13.828125 9.753906 -13.925781 9.609375 -14.0625 C 8.859375 -14.738281 8.300781 -15.382812 7.9375 -16 C 8.007812 -15.394531 8.066406 -14.753906 8.109375 -14.078125 C 8.148438 -13.398438 8.171875 -12.597656 8.171875 -11.671875 L 8.171875 0 Z M 5.125 0 "/></g></g></g><g fill="#000000" fill-opacity="1"><g transform="translate(277.641077, 276.589501)"><g><path d="M 5.125 0 L 5.125 -19.796875 L 8.453125 -19.796875 L 8.453125 -11.3125 L 20.796875 -19.796875 L 25.625 -19.796875 L 11.28125 -10.328125 L 27.203125 0 L 21.671875 0 L 8.453125 -8.890625 L 8.453125 0 Z M 5.125 0 "/></g></g></g></svg>